<svg width="144" height="44" viewBox="0 0 144 44" xmlns="http://www.w3.org/2000/svg"><path d="M14.22.61c2.876 0 3.803 2.077 4.57 4.154.32.863 7.827 21.438 8.051 22.045a.41.41 0 0 1-.256.543c-.287.096-4.153 1.63-4.377 1.693a.44.44 0 0 1-.543-.255c-.096-.224-1.693-4.697-1.885-5.176H8.662c-.192.511-1.821 4.984-1.885 5.176-.064.192-.32.351-.543.255-.224-.095-4.154-1.597-4.378-1.693a.455.455 0 0 1-.255-.543c.287-.767 7.668-20.99 8.051-22.045C10.387 2.719 11.345.61 14.221.61zM1.027 37.384c-.224 0-.416.192-.416.448v4.792c0 .256.192.447.416.447h26.39c.224 0 .415-.191.415-.447v-4.792c0-.256-.191-.448-.415-.448H1.026zM14.22 7.32l-3.77 11.278h7.572L14.253 7.32h-.032zm98.18 16.55c0 1.278-.702 2.108-2.012 2.108-.511 0-.927 0-1.598-.191V21.92c.288-.064.927-.128 1.598-.128 1.342.096 2.013.703 2.013 2.077zm2.684-.16c0-2.364-1.373-3.994-4.313-3.994-.703 0-1.214.064-1.98.256v-3.419c.479-.064 1.31-.128 2.204-.128.862 0 1.949.064 2.907.16l.064-1.98c-1.086-.256-2.652-.384-3.866-.384s-3.067.287-3.961.543v12.588a11.7 11.7 0 0 0 4.121.735c3.163 0 4.824-1.693 4.824-4.377zm-30.32-.703c0 1.757-.703 2.907-1.853 2.907-.479 0-.735-.032-1.278-.191V20.45c.607-.287.927-.287 1.406-.287 1.15-.032 1.725.926 1.725 2.843zm-8.786.064c0-1.917.575-2.94 1.726-2.94.479 0 .798 0 1.405.288v5.272c-.543.191-.798.191-1.278.191-1.31.032-1.853-1.054-1.853-2.811zm5.655 7.891v-3.45c.32.192.959.48 2.013.48 2.14 0 3.706-1.758 3.706-5.017 0-3.482-1.565-4.984-4.121-4.984-.64 0-1.087.064-1.598.32v-4.058h-2.492v4.09c-.511-.256-.958-.32-1.597-.32-2.556 0-4.122 1.565-4.122 5.016 0 3.227 1.406 4.952 3.706 4.952 1.087 0 1.726-.287 2.045-.48v3.451h2.46zm-19.01-3.13V18.63c-1.373-.415-2.428-.575-3.834-.575-1.405 0-2.428.192-3.802.575v4.728c0 1.278-.032 1.662-.16 2.077-.127.352-.319.799-.83 1.15l.671 1.47c2.013-.575 2.78-1.438 2.78-4.25v-3.482c.67-.096.798-.128 1.341-.128.544 0 .64.032 1.31.128v7.508h2.524zm30.927-2.013a3.675 3.675 0 0 1-1.341.223c-.895 0-1.406-.351-1.406-1.278 0-.958.639-1.278 1.885-1.278.287 0 .607.032.735.096v.703c0 .735.032 1.214.127 1.534zm3.195 1.118c-.67-1.023-.83-1.598-.83-2.876v-2.588c0-1.373-.16-1.885-.543-2.428-.512-.703-1.342-1.022-2.94-1.022-1.118 0-2.204.128-3.227.383l.384 1.853c.703-.095 1.437-.191 1.98-.191 1.662 0 1.854.255 1.854 1.501v.48a5.176 5.176 0 0 0-1.278-.16c-2.524 0-3.834 1.214-3.834 3.259 0 1.885 1.406 2.939 3.13 2.939.64 0 1.31-.128 1.854-.351.32-.128.447-.224.862-.512.256.384.767.735.959.8l1.63-1.087zm24.506-1.118a3.675 3.675 0 0 1-1.342.223c-.895 0-1.406-.351-1.406-1.278 0-.958.639-1.278 1.885-1.278.32 0 .607.032.735.096v.703c0 .735.064 1.214.128 1.534zm3.195 1.118c-.671-1.023-.831-1.598-.831-2.876v-2.588c0-1.373-.16-1.885-.511-2.428-.511-.703-1.374-1.022-2.94-1.022-1.118 0-2.204.128-3.227.383l.384 1.853c.703-.095 1.438-.191 1.98-.191 1.662 0 1.854.255 1.854 1.501v.48a4.982 4.982 0 0 0-1.278-.16c-2.524 0-3.834 1.214-3.834 3.259 0 1.885 1.406 2.939 3.13 2.939.64 0 1.31-.128 1.854-.351.32-.128.447-.224.863-.512.255.384.766.735.958.8l1.598-1.087zM69.749 24.54c0 .926-.32 1.597-1.533 1.597-.416 0-.576 0-1.087-.16v-2.747c.671-.128.703-.16 1.087-.16 1.15 0 1.533.575 1.533 1.47zm-5.144-6.358v9.137c1.182.511 2.492.735 3.674.735 2.684 0 4.09-1.374 4.09-3.642 0-2.045-1.278-3.323-3.642-3.323-.607 0-.959.064-1.598.224v-3.131h-2.524zm69.043 9.648V18.28h-2.524v3.61h-2.843v-3.61h-2.525v9.552h2.525v-3.897h2.843v3.897h2.524zm10.32 0s-1.374-2.939-1.694-3.578c-.383-.735-.734-1.278-1.501-1.47v-.032c.51-.095.926-.415 1.374-1.373.415-.927.543-1.15.798-1.342.256-.224.575-.128.575-.128l.128-1.725c-.351-.064-.767-.064-1.182-.032-.67.032-1.022.223-1.374.575-.255.255-.447.639-.67 1.086-.224.48-.416.863-.672 1.374-.255.511-.351.735-1.022.735h-.415v-3.642h-2.524v9.552h2.524v-3.897h.351c.703 0 .83.191 1.214.926.447.895 1.278 2.971 1.278 2.971h2.812zm-93.644 0h2.907l-4.377-13.354c-.447-.16-1.022-.256-1.63-.256-.67 0-.894.096-1.405.256L41.186 27.83h2.78s.383-1.182.83-2.62h4.793c.383 1.47.735 2.62.735 2.62zm-4.888-4.856s.798-2.684.926-3.099c.32-1.086.799-2.812.799-2.812h.064s.447 1.79.735 2.78c.127.383.894 3.1.894 3.1h-3.418v.031zm55.592-1.533c-.895 0-1.598.734-1.598 1.597 0 .895.703 1.597 1.598 1.597.894 0 1.597-.702 1.597-1.597 0-.863-.735-1.597-1.597-1.597z" fill="#EE3524" fill-rule="nonzero"/></svg>