<svg width="88" height="76" viewBox="0 0 88 76" xmlns="http://www.w3.org/2000/svg"><title>Group</title><path d="M44 0c-2.688 0-5.146 1.335-6.532 3.656L1.031 64.812a7.277 7.277 0 0 0 0 7.5C2.379 74.57 4.806 76.007 7.5 76h73c2.693.01 5.12-1.432 6.468-3.688a7.273 7.273 0 0 0 0-7.5L50.531 3.656C49.145 1.335 46.688 0 44 0zm0 6c.494 0 1.167.37 1.375.719l36.437 61.156c.208.349.209 1.026 0 1.375-.25.419-.817.751-1.312.75h-73c-.496 0-1.063-.332-1.313-.75-.208-.35-.208-1.026 0-1.375L42.625 6.719C42.833 6.37 43.505 6 44 6zm0 19a3 3 0 0 0-3 3v24a3 3 0 0 0 6 0V28a3 3 0 0 0-3-3zm0 32a4 4 0 1 0 0 8 4 4 0 0 0 0-8z" fill="#FF862F" fill-rule="nonzero"/></svg>